<?xml version="1.0" encoding="utf-8" ?>
<svg baseProfile="full" height="200mm" version="1.1" viewBox="0,0,200,200" width="200mm" xmlns="http://www.w3.org/2000/svg" xmlns:ev="http://www.w3.org/2001/xml-events" xmlns:xlink="http://www.w3.org/1999/xlink"><defs /><rect fill="#1a1a1a" height="200" width="200" x="0" y="0" /><text alignment-baseline="middle" fill="#e1ed5e" style="dominant-baseline: central; font-size:9.0px; font-family:Arial;" text-anchor="middle" x="100.0" y="100.0">2023</text><line stroke="#e1ed5e" stroke-width="0.3" x1="100.0" x2="100.0" y1="15.0" y2="10.0" /><path d="M 100.0 14.0 a86.0,86.0 0 0,1 42.46469731375804,11.215312516191453" fill="none" id="id1" stroke="none" /><text fill="#e1ed5e" style="font-size:6.75px; font-family:Arial;" text-anchor="middle"><textPath startOffset="22.20632615414155" xlink:href="#id1">January</textPath></text><line stroke="#e1ed5e" stroke-width="0.3" x1="143.23703022742887" x2="145.7803849466894" y1="26.81831364943548" y2="22.513508569990506" /><path d="M 143.74570117128098 25.957352633546492 a86.0,86.0 0 0,1 28.547481713284135,27.462654790039103" fill="none" id="id2" stroke="none" /><text fill="#e1ed5e" style="font-size:6.75px; font-family:Arial;" text-anchor="middle"><textPath startOffset="19.985693538727396" xlink:href="#id2">February</textPath></text><line stroke="#e1ed5e" stroke-width="0.3" x1="172.23445277983987" x2="176.4835382374775" y1="55.19839476539836" y2="52.563006222186495" /><path d="M 173.08426987136738 54.67131705675599 a86.0,86.0 0 0,1 12.851231095245387,41.99856678651699" fill="none" id="id3" stroke="none" /><text fill="#e1ed5e" style="font-size:6.75px; font-family:Arial;" text-anchor="middle"><textPath startOffset="22.20632615414155" xlink:href="#id3">March</textPath></text><line stroke="#e1ed5e" stroke-width="0.3" x1="184.98032266829074" x2="189.97916517819016" y1="98.17113171792111" y2="98.06355123074" /><path d="M 185.9800911702706 98.14961562048488 a86.0,86.0 0 0,1 -9.607161424134198,41.387399972396054" fill="none" id="id4" stroke="none" /><text fill="#e1ed5e" style="font-size:6.75px; font-family:Arial;" text-anchor="middle"><textPath startOffset="21.466115282336823" xlink:href="#id4">April</textPath></text><line stroke="#e1ed5e" stroke-width="0.3" x1="174.80103733775053" x2="179.2010983576182" y1="140.37084112569926" y2="142.7455964860345" /><path d="M 175.68104954172406 140.8457921977663 a86.0,86.0 0 0,1 -30.038265399797805,32.042727171017184" fill="none" id="id5" stroke="none" /><text fill="#e1ed5e" style="font-size:6.75px; font-family:Arial;" text-anchor="middle"><textPath startOffset="22.206326154141568" xlink:href="#id5">May</textPath></text><line stroke="#e1ed5e" stroke-width="0.3" x1="143.8653032363475" x2="146.44561519142675" y1="172.8068346515853" y2="177.08958963109032" /><path d="M 144.38136562736335 173.6633856474863 a86.0,86.0 0 0,1 -40.68145358897372,12.25698825130547" fill="none" id="id6" stroke="none" /><text fill="#e1ed5e" style="font-size:6.75px; font-family:Arial;" text-anchor="middle"><textPath startOffset="21.466115282336833" xlink:href="#id6">June</textPath></text><line stroke="#e1ed5e" stroke-width="0.3" x1="102.19456741930631" x2="102.32365962044197" y1="184.97166512339345" y2="189.96999836594603" /><path d="M 102.22038585953345 185.97133177190398 a86.0,86.0 0 0,1 -42.740103519485714,-10.115201625700543" fill="none" id="id7" stroke="none" /><text fill="#e1ed5e" style="font-size:6.75px; font-family:Arial;" text-anchor="middle"><textPath startOffset="22.20632615414155" xlink:href="#id7">July</textPath></text><path d="M 94.81253420990036 120.34920634021253 l -5.171812439578636 20.28780193340651 a41.936631801684655,41.936631801684655 0 0,0 -0.6979644576659249,-0.18433875696981042 l 5.52026734005605 -20.195771827133118" fill="#ffbf11" stroke="none" /><path d="M 94.11515582081647 120.15858648285463 l -11.044424726547843 37.832775894226295 a60.41190491974641,60.41190491974641 0 0,0 -0.9957177206886031,-0.30000158124646453 l 11.694017421676692 -37.6370589438741" fill="#4eff2b" stroke="none" /><path d="M 93.42475214034765 119.94407469862007 l -10.931639745051946 33.15790435696935 a55.91342677053523,55.91342677053523 0 0,0 -0.9114694437501045,-0.309219922734309 l 11.500778921739277 -32.96482144733691" fill="#83ff25" stroke="none" /><path d="M 91.7346041902142 119.30500536409082 l -15.873470836793043 37.07474471920909 a61.329936429419796,61.329936429419796 0 0,0 -0.966908284587419,-0.42386417714793767 l 16.509299796038203 -36.796015988766705" fill="#43ff2d" stroke="none" /><path d="M 90.10565033884886 118.52300852407294 l -15.782474132217223 29.54604525751202 a54.4970936066557,54.4970936066557 0 0,0 -0.8236254442958035,-0.4491062619311842 l 16.288722388381668 -29.26999834382107" fill="#95ff23" stroke="none" /><line stroke="#e1ed5e" stroke-width="0.3" x1="58.666819895761336" x2="56.23545636021788" y1="174.27360380694188" y2="178.64263932499728" /><path d="M 58.180547188652646 175.14741091055294 a86.0,86.0 0 0,1 -31.652253787137756,-30.449443065178592" fill="none" id="id8" stroke="none" /><text fill="#e1ed5e" style="font-size:6.75px; font-family:Arial;" text-anchor="middle"><textPath startOffset="22.20632615414155" xlink:href="#id8">August</textPath></text><path d="M 89.4739219176387 118.17145234162733 l -12.372828994318713 21.359548223200264 a45.6843512700227,45.6843512700227 0 0,0 -0.6770684717360191,-0.4000239873983634 l 12.738665337083114 -21.14340566350815" fill="#fff417" stroke="none" /><path d="M 88.24862548938628 117.40417183066458 l -16.78880657673322 24.86477426358499 a51.00201702302695,51.00201702302695 0 0,0 -0.7233618876502252,-0.4975349022916655 l 17.214325349006334 -24.572098571928226" fill="#c2ff1e" stroke="none" /><path d="M 87.65650970185807 116.9893568818739 l -17.520168728803853 24.114443481930056 a50.807091383242266,50.807091383242266 0 0,0 -0.7031097316803647,-0.5201437705174577 l 17.93266343090278 -23.809289762672833" fill="#c4ff1e" stroke="none" /><path d="M 85.97065885151581 115.62618273729859 l -8.05885282834467 8.976124082798814 a33.062997656416904,33.062997656416904 0 0,0 -0.4202156652606667,-0.3838570469983585 l 8.21216804307219 -8.83607426921388" fill="#ff3605" stroke="none" /><path d="M 85.70375840098266 115.38237550388516 l -8.095374206625689 8.71040720935649 a32.89143714183067,32.89143714183067 0 0,0 -0.41140009012123074,-0.38900446350853135 l 8.244110131137736 -8.569768109102027" fill="#ff3304" stroke="none" /><path d="M 84.67929136418377 114.36230785411682 l -14.424934017836522 13.522569227324313 a40.77216730474218,40.77216730474218 0 0,0 -0.47558518262360455,-0.5161537865235891 l 14.655565608455856 -13.27226418599938" fill="#ffad10" stroke="none" /><path d="M 84.43433777217949 114.09645910891817 l -29.242991895138594 26.482820546849666 a60.45240625229067,60.45240625229067 0 0,0 -0.6918667076286441,-0.7773195804493983 l 29.694517452415575 -25.975526796659402" fill="#4dff2c" stroke="none" /><path d="M 83.72743513129214 113.27417163493432 l -27.026821891778336 22.046842365222897 a55.878537237775554,55.878537237775554 0 0,0 -0.6015779223826905,-0.7505609550065354 l 27.402317726215887 -21.578353576638104" fill="#84ff25" stroke="none" /><path d="M 83.28015986056508 112.70617746262583 l -15.985922042507768 12.148439260297293 a41.07820410321273,41.07820410321273 0 0,0 -0.4229856581771181,-0.5666584124566011 l 16.19266896737997 -11.871467968331384" fill="#ffb210" stroke="none" /><path d="M 82.24976979558568 111.22182372390057 l -16.67642147486507 10.542954090244177 a40.72959488069477,40.72959488069477 0 0,0 -0.36954419222720747,-0.5958229033026661 l 16.855430306760233 -10.254334855576246" fill="#ffad10" stroke="none" /><line stroke="#e1ed5e" stroke-width="0.3" x1="26.63291911575756" x2="22.317208475507996" y1="142.92168965132927" y2="145.44649492493687" /><path d="M 25.769776987707644 143.4266507060508 a86.0,86.0 0 0,1 -11.730757126820373,-40.83630448921669" fill="none" id="id9" stroke="none" /><text fill="#e1ed5e" style="font-size:6.75px; font-family:Arial;" text-anchor="middle"><textPath startOffset="21.46611528233685" xlink:href="#id9">September</textPath></text><path d="M 81.87401531095188 110.60418214915194 l -17.755806491103005 10.38761807795824 a41.571127180663204,41.571127180663204 0 0,0 -0.35602305910180626,-0.6207562128169664 l 17.93198154635719 -10.080442019282966" fill="#ffb911" stroke="none" /><path d="M 81.35079622478065 109.6543875284942 l -34.99560165293127 18.116650138122942 a60.40691750540501,60.40691750540501 0 0,0 -0.47008470537354946,-0.9275217206495808 l 35.30226502809109 -17.511574205770675" fill="#4eff2b" stroke="none" /><path d="M 81.02952815118164 109.00673069616217 l -23.48632971968861 11.150753049913266 a46.998980312352224,46.998980312352224 0 0,0 -0.3406875136278695,-0.7338105953703703 l 23.674791850156307 -10.744822387264069" fill="#f7ff18" stroke="none" /><path d="M 80.87730276802145 108.67885076344099 l -17.990852958174845 8.165162374160294 a40.75704094137256,40.75704094137256 0 0,0 -0.28444322428239893,-0.6413443799386601 l 18.128737267188523 -7.854269657728938" fill="#ffad10" stroke="none" /><path d="M 80.73074385275274 108.34839909993369 l -27.52972004735963 11.927242458585312 a51.00240987907263,51.00240987907263 0 0,0 -0.3420780661092947,-0.8085715000552021 l 27.73094909466123 -11.451596432863951" fill="#c2ff1e" stroke="none" /><path d="M 80.58989483394504 108.01547362559985 l -27.65989706217857 11.422255237257962 a50.9255379265834,50.9255379265834 0 0,0 -0.32761462101988886,-0.8131126218918384 l 27.852414297455844 -10.944443247523319" fill="#c3ff1e" stroke="none" /><path d="M 80.45479744820244 107.68017299344265 l -18.475967786253182 7.260023447884286 a40.85117946376222,40.85117946376222 0 0,0 -0.2515376757150772,-0.6566854978112097 l 18.598199741561768 -6.940914383239919" fill="#ffaf10" stroke="none" /><path d="M 79.76711848015287 105.62410040840567 l -42.81222951345331 11.900444197984383 a65.43543144858552,65.43543144858552 0 0,0 -0.29231541426655844,-1.0878144004891277 l 43.01073300406164 -11.161738864319718" fill="#33ff4f" stroke="none" /><path d="M 79.58551787078972 104.9243191809786 l -23.137269998070824 5.581101774997041 a44.80088149599723,44.80088149599723 0 0,0 -0.1743808904426227,-0.751228312054901 l 23.229911454444 -5.182004805593566" fill="#ffe815" stroke="none" /><path d="M 79.29508885075956 103.50808413554451 l -31.6406315423106 5.36095019930868 a53.09157757785878,53.09157757785878 0 0,0 -0.14491028975972844,-0.9023565126615172 l 31.72822358643162 -4.815514456953949" fill="#a7ff21" stroke="none" /><path d="M 79.18660465613746 102.79330883721812 l -39.11151780281928 5.249049783116951 a60.46217617498925,60.46217617498925 0 0,0 -0.12955746073931873,-1.032700434815023 l 39.19607677280544 -4.575031594014519" fill="#4dff2c" stroke="none" /><path d="M 79.07016306316243 101.71520430193888 l -31.511663740969418 2.58238711428436 a52.617300247363765,52.617300247363765 0 0,0 -0.0662061974441557,-0.9033309630566799 l 31.55144649707791 -2.0395830147309195" fill="#adff20" stroke="none" /><path d="M 79.04373962182676 101.35467743843564 l -28.89487610531874 1.867854094189325 a49.95518509799065,49.95518509799065 0 0,0 -0.04808459918662818,-0.8585828198839661 l 28.9227470553929 -1.370199557969921" fill="#cfff1d" stroke="none" /><path d="M 79.0095281055655 100.63252640178507 l -45.58003237287833 1.3735076569530693 a66.60072230125687,66.60072230125687 0 0,0 -0.02466744015201914,-1.1461990150194152 l 45.59692187571535 -0.5887188261435252" fill="#34ff5f" stroke="none" /><line stroke="#e1ed5e" stroke-width="0.3" x1="15.007084014347285" x2="10.007500721073583" y1="101.09737516637583" y2="101.16192664675087" /><path d="M 14.007167355692545 101.11028546245083 a86.0,86.0 0 0,1 10.666146001902534,-42.60595125391555" fill="none" id="id10" stroke="none" /><text fill="#e1ed5e" style="font-size:6.75px; font-family:Arial;" text-anchor="middle"><textPath startOffset="22.20632615414155" xlink:href="#id10">October</textPath></text><path d="M 79.03285615573316 98.82574320788736 l -19.7036672804629 -1.1034962751942845 a40.73454352977418,40.73454352977418 0 0,0 0.045233594324730425,-0.6997436833408172 l 19.681753095133757 1.4424990227881136" fill="#ffad10" stroke="none" /><path d="M 79.21141760316559 97.0276538004421 l -27.56740120877902 -3.9415799812824024 a48.84775865585303,48.84775865585303 0 0,0 0.1261763345609209,-0.8313443952980353 l 27.495468980778796 4.415523488972529" fill="#deff1b" stroke="none" /><path d="M 79.32604984820605 96.31383870115002 l -26.586492513067714 -4.740366454125899 a48.00578934722716,48.00578934722716 0 0,0 0.15205096793173767,-0.8122623506563572 l 26.500955821226118 5.197306882244829" fill="#eaff1a" stroke="none" /><path d="M 79.46518482838121 95.60439243477599 l -32.65652886489942 -6.9903373433281395 a54.39631257605452,54.39631257605452 0 0,0 0.20387119648224492,-0.9139145987055299 l 32.53136328141514 7.551430111583628" fill="#96ff23" stroke="none" /><path d="M 79.62865764111835 94.90015583598534 l -13.641169069738496 -3.414985387073049 a35.06213421864237,35.06213421864237 0 0,0 0.151608114262302,-0.5842079090946886 l 13.580364623605886 3.6492897217166016" fill="#ff5607" stroke="none" /><path d="M 79.91906864156998 93.8553929516997 l -16.75216334199142 -5.126030217829809 a38.51888017057213,38.51888017057213 0 0,0 0.19946271380663771,-0.6323513108688393 l 16.66144514441658 5.413631695125063" fill="#ff8b0c" stroke="none" /><path d="M 80.14247586403 93.16781622104843 l -33.46676600368324 -11.514582294282748 a56.39223124016198,56.39223124016198 0 0,0 0.3237099877267781,-0.9151717265593627 l 33.26360293514665 12.088951647268722" fill="#7dff26" stroke="none" /><path d="M 80.52162464483688 92.15188598940014 l -25.491931842208228 -10.271061307741979 a48.483327481132704,48.483327481132704 0 0,0 0.31855465428526886,-0.7714053628802973 l 25.311355501036758 10.708341241075589" fill="#e3ff1b" stroke="none" /><path d="M 80.803312248108 91.48605970444005 l -13.210430738389212 -5.85897004936127 a35.451401673647126,35.451401673647126 0 0,0 0.25220748906878276,-0.555705770793524 l 13.107620932357078 6.085497828996865" fill="#ff5c08" stroke="none" /><path d="M 81.43458229118936 90.18545643968196 l -17.435194408 -9.21705493966459 a40.72156448676296,40.72156448676296 0 0,0 0.332931562358567,-0.6168716215091588 l 17.273954746422962 9.515807544506222" fill="#ffad10" stroke="none" /><line stroke="#e1ed5e" stroke-width="0.3" x1="26.266209847984243" x2="21.928928074336255" y1="57.711370442889674" y2="55.22380399835377" /><path d="M 25.398753493254645 57.213857153982495 a86.0,86.0 0 0,1 29.58750427330803,-30.492523968695096" fill="none" id="id11" stroke="none" /><text fill="#e1ed5e" style="font-size:6.75px; font-family:Arial;" text-anchor="middle"><textPath startOffset="21.46611528233685" xlink:href="#id11">November</textPath></text><path d="M 81.96595687620814 89.24020034530311 l -30.76710504128204 -18.356831240048788 a56.82719645460573,56.82719645460573 0 0,0 0.5084253543574249,-0.8357176011178539 l 30.446563888638398 18.883716614373718" fill="#78ff26" stroke="none" /><path d="M 82.7489923806493 88.02491185347247 l -28.67749025524677 -19.90698057790839 a55.909688097561045,55.909688097561045 0 0,0 0.5556022065077288,-0.785859919100732 l 28.330575428935166 20.397666997340906" fill="#83ff25" stroke="none" /><path d="M 83.17141714833178 87.43820079747576 l -7.044632652992817 -5.258509383852783 a29.79083444023833,29.79083444023833 0 0,0 0.3102843929943031,-0.4082978900527823 l 6.953072319774405 5.378992049786592" fill="#ff0000" stroke="none" /><path d="M 83.39014120810768 87.1503855733568 l -15.717230136818628 -12.159064664144994 a40.87144123310081,40.87144123310081 0 0,0 0.43527290723934825,-0.5527523895381742 l 15.505603148985308 12.427809447636216" fill="#ffaf10" stroke="none" /><path d="M 84.07557802195018 86.31012108654704 l -43.530211397335634 -37.42197512273628 a78.40456015320927,78.40456015320927 0 0,0 0.8886153928125812,-1.0158410066875636 l 42.87960414094521 38.16573168562678" fill="#45fff0" stroke="none" /><path d="M 85.05521093208273 85.24692304244772 l -19.15058917871591 -18.90492496428641 a47.90987279414844,47.90987279414844 0 0,0 0.5844187727808974,-0.5819090928429019 l 18.8223346057677 19.23176990777942" fill="#ebff1a" stroke="none" /><path d="M 85.31137513191541 84.99185889309783 l -24.834977120941033 -25.375203217806337 a56.50601395457724,56.50601395457724 0 0,0 0.7009887367541604,-0.6743506093648468 l 24.394505140574445 25.7989369139335" fill="#7cff26" stroke="none" /><path d="M 85.83668400450813 84.49514656593479 l -42.48994798647562 -46.514560302195655 a84.0,84.0 0 0,0 1.0759560496161145,-0.9660039649228849 l 41.68298094926353 47.23906327588782" fill="#4dd2ff" stroke="none" /><path d="M 87.51073957382395 83.11751280151077 l -12.834485280265701 -17.349148472326846 a42.58047648047183,42.58047648047183 0 0,0 0.5929933227905537,-0.43083486783054914 l 12.533946641121366 17.56750257497406" fill="#ffc812" stroke="none" /><path d="M 89.00827224532344 82.1063720568725 l -10.769740623364193 -17.532251167381244 a41.575887443575354,41.575887443575354 0 0,0 0.6130224706283932,-0.3693391793983715 l 10.46635608651815 17.715036956238233" fill="#ffb911" stroke="none" /><line stroke="#e1ed5e" stroke-width="0.3" x1="56.762969772571076" x2="54.21961505331055" y1="26.818313649435495" y2="22.513508569990535" /><path d="M 56.25429882871897 25.957352633546506 a86.0,86.0 0 0,1 42.265352541879196,-11.944610805530505" fill="none" id="id12" stroke="none" /><text fill="#e1ed5e" style="font-size:6.75px; font-family:Arial;" text-anchor="middle"><textPath startOffset="22.20632615414155" xlink:href="#id12">December</textPath></text><path d="M 89.63071344664047 81.73862282372117 l -21.290784835074387 -37.49525584538162 a64.11834562925691,64.11834562925691 0 0,0 0.964449563468331,-0.5367151378827429 l 20.64221118253401 37.85618638082455" fill="#31ff3d" stroke="none" /><path d="M 89.94658935756843 81.56283822128135 l -25.07754326862428 -45.99023542368842 a73.38305957765361,73.38305957765361 0 0,0 1.1142167641544447,-0.5951760076411408 l 24.282181457941526 46.41509015783131" fill="#3effb5" stroke="none" /><path d="M 90.91171255644093 81.06846463323043 l -10.178003861058023 -21.2014905179187 a44.51797105995984,44.51797105995984 0 0,0 0.6936785771215392,-0.32569139317278906 l 9.811547072636877 21.373546893731497" fill="#ffe415" stroke="none" /><path d="M 93.25333710446033 80.11325718540243 l -16.67452209311793 -49.15051152791243 a72.90195054609538,72.90195054609538 0 0,0 1.1918329483099481,-0.39292858459762126 l 15.826006322565572 49.43025383676928" fill="#3dffaf" stroke="none" /><path d="M 93.94186890950719 79.89281104454417 l -6.227315255820311 -20.668718233990212 a42.58646262664293,42.58646262664293 0 0,0 0.7037104344762389,-0.20543237283430033 l 5.87061460362065 20.77284893574321" fill="#ffc812" stroke="none" /><path d="M 94.28887869178378 79.79150937346287 l -14.217642645393536 -50.30835148214149 a73.27878720133818,73.27878720133818 0 0,0 1.216784179630109,-0.3325930805815854 l 13.349560576539703 50.54563110354937" fill="#3effb4" stroke="none" /><path d="M 94.63758080256005 79.69619591428918 l -7.9187533593780355 -29.982888485971735 a52.01096994176218,52.01096994176218 0 0,0 0.8675704981652841,-0.22116303724527042 l 7.401473972527752 30.114754519385865" fill="#b5ff20" stroke="none" /><path d="M 94.98787191387505 79.60689891045804 l -4.755248664806014 -19.347922690912842 a40.92371708084813,40.92371708084813 0 0,0 0.6855235385947203,-0.16224127320814616 l 4.421501439248759 19.42690987626186" fill="#ffb010" stroke="none" /><path d="M 95.33964822691252 79.52364482259891 l -3.488038677308247 -15.325520970653827 a36.717442757533696,36.717442757533696 0 0,0 0.6174777171571253,-0.1349567126342488 l 3.223718235997601 15.383291181383942" fill="#ff700a" stroke="none" /><path d="M 95.692805502759 79.44645832069477 l -2.6571680524694896 -12.679765065249168 a33.955191398392294,33.955191398392294 0 0,0 0.573088590693466,-0.11495617995556273 l 2.4385130523088874 12.72362520128194" fill="#ff4406" stroke="none" /><path d="M 96.04723909329186 79.375362276772 l -5.479361673592636 -28.590105027754646 a50.110436442074814,50.110436442074814 0 0,0 0.8485483658316751,-0.15506679007108376 l 4.986418186658067 28.680187299176467" fill="#cdff1d" stroke="none" /><path d="M 96.40284397218896 79.31037775812273 l -6.764656501063699 -38.908011362586215 a60.491694389688085,60.491694389688085 0 0,0 1.027410507617808,-0.16953153694986398 l 6.093916787307006 39.01868916247571" fill="#4dff2c" stroke="none" /><path d="M 97.11714578562143 79.19881850522333 l -4.054026894485918 -29.251756400413537 a50.531345830665245,50.531345830665245 0 0,0 0.8626068204271123,-0.11199112227295573 l 3.5499053455509473 29.31720584585063" fill="#c8ff1d" stroke="none" /></svg>